<?xml version="1.0" encoding="utf-8"?>
<!-- @license Lucide 1.16.0 (ISC/MIT); see docs/THIRD_PARTY_NOTICES.md -->
<svg xmlns="http://www.w3.org/2000/svg" version="1.1">
  <defs>
    <symbol id="activity" viewBox="0 0 24 24">
      <path d="M22 12h-2.48a2 2 0 0 0-1.93 1.46l-2.35 8.36a.25.25 0 0 1-.48 0L9.24 2.18a.25.25 0 0 0-.48 0l-2.35 8.36A2 2 0 0 1 4.49 12H2" />
    </symbol>
    <symbol id="arrow-down" viewBox="0 0 24 24">
      <path d="M12 5v14" />
      <path d="m19 12-7 7-7-7" />
    </symbol>
    <symbol id="arrow-left" viewBox="0 0 24 24">
      <path d="m12 19-7-7 7-7" />
      <path d="M19 12H5" />
    </symbol>
    <symbol id="arrow-up-down" viewBox="0 0 24 24">
      <path d="m21 16-4 4-4-4" />
      <path d="M17 20V4" />
      <path d="m3 8 4-4 4 4" />
      <path d="M7 4v16" />
    </symbol>
    <symbol id="arrow-up" viewBox="0 0 24 24">
      <path d="m5 12 7-7 7 7" />
      <path d="M12 19V5" />
    </symbol>
    <symbol id="chevron-left" viewBox="0 0 24 24">
      <path d="m15 18-6-6 6-6" />
    </symbol>
    <symbol id="chevron-right" viewBox="0 0 24 24">
      <path d="m9 18 6-6-6-6" />
    </symbol>
    <symbol id="cloud" viewBox="0 0 24 24">
      <path d="M17.5 19H9a7 7 0 1 1 6.71-9h1.79a4.5 4.5 0 1 1 0 9Z" />
    </symbol>
    <symbol id="cpu" viewBox="0 0 24 24">
      <path d="M12 20v2" />
      <path d="M12 2v2" />
      <path d="M17 20v2" />
      <path d="M17 2v2" />
      <path d="M2 12h2" />
      <path d="M2 17h2" />
      <path d="M2 7h2" />
      <path d="M20 12h2" />
      <path d="M20 17h2" />
      <path d="M20 7h2" />
      <path d="M7 20v2" />
      <path d="M7 2v2" />
      <rect x="4" y="4" width="16" height="16" rx="2" />
      <rect x="8" y="8" width="8" height="8" rx="1" />
    </symbol>
    <symbol id="database-zap" viewBox="0 0 24 24">
      <ellipse cx="12" cy="5" rx="9" ry="3" />
      <path d="M3 5V19A9 3 0 0 0 15 21.84" />
      <path d="M21 5V8" />
      <path d="M21 12L18 17H22L19 22" />
      <path d="M3 12A9 3 0 0 0 14.59 14.87" />
    </symbol>
    <symbol id="file-key" viewBox="0 0 24 24">
      <path d="M14 2v5a1 1 0 0 0 1 1h5" />
      <path d="M4 12v6" />
      <path d="M4 14h2" />
      <path d="M9.65 22H18a2 2 0 0 0 2-2V8a2.4 2.4 0 0 0-.706-1.706l-3.588-3.588A2.4 2.4 0 0 0 14 2H6a2 2 0 0 0-2 2v4" />
      <circle cx="4" cy="20" r="2" />
    </symbol>
    <symbol id="gauge" viewBox="0 0 24 24">
      <path d="m12 14 4-4" />
      <path d="M3.34 19a10 10 0 1 1 17.32 0" />
    </symbol>
    <symbol id="globe" viewBox="0 0 24 24">
      <circle cx="12" cy="12" r="10" />
      <path d="M12 2a14.5 14.5 0 0 0 0 20 14.5 14.5 0 0 0 0-20" />
      <path d="M2 12h20" />
    </symbol>
    <symbol id="hard-drive" viewBox="0 0 24 24">
      <path d="M10 16h.01" />
      <path d="M2.212 11.577a2 2 0 0 0-.212.896V18a2 2 0 0 0 2 2h16a2 2 0 0 0 2-2v-5.527a2 2 0 0 0-.212-.896L18.55 5.11A2 2 0 0 0 16.76 4H7.24a2 2 0 0 0-1.79 1.11z" />
      <path d="M21.946 12.013H2.054" />
      <path d="M6 16h.01" />
    </symbol>
    <symbol id="key-round" viewBox="0 0 24 24">
      <path d="M2.586 17.414A2 2 0 0 0 2 18.828V21a1 1 0 0 0 1 1h3a1 1 0 0 0 1-1v-1a1 1 0 0 1 1-1h1a1 1 0 0 0 1-1v-1a1 1 0 0 1 1-1h.172a2 2 0 0 0 1.414-.586l.814-.814a6.5 6.5 0 1 0-4-4z" />
      <circle cx="16.5" cy="7.5" r=".5" fill="currentColor" />
    </symbol>
    <symbol id="layout-dashboard" viewBox="0 0 24 24">
      <rect width="7" height="9" x="3" y="3" rx="1" />
      <rect width="7" height="5" x="14" y="3" rx="1" />
      <rect width="7" height="9" x="14" y="12" rx="1" />
      <rect width="7" height="5" x="3" y="16" rx="1" />
    </symbol>
    <symbol id="lock-open" viewBox="0 0 24 24">
      <rect width="18" height="11" x="3" y="11" rx="2" ry="2" />
      <path d="M7 11V7a5 5 0 0 1 9.9-1" />
    </symbol>
    <symbol id="memory-stick" viewBox="0 0 24 24">
      <path d="M12 12v-2" />
      <path d="M12 18v-2" />
      <path d="M16 12v-2" />
      <path d="M16 18v-2" />
      <path d="M2 11h1.5" />
      <path d="M20 18v-2" />
      <path d="M20.5 11H22" />
      <path d="M4 18v-2" />
      <path d="M8 12v-2" />
      <path d="M8 18v-2" />
      <rect x="2" y="6" width="20" height="10" rx="2" />
    </symbol>
    <symbol id="network" viewBox="0 0 24 24">
      <rect x="16" y="16" width="6" height="6" rx="1" />
      <rect x="2" y="16" width="6" height="6" rx="1" />
      <rect x="9" y="2" width="6" height="6" rx="1" />
      <path d="M5 16v-3a1 1 0 0 1 1-1h12a1 1 0 0 1 1 1v3" />
      <path d="M12 12V8" />
    </symbol>
    <symbol id="log-out" viewBox="0 0 24 24">
      <path d="m16 17 5-5-5-5" />
      <path d="M21 12H9" />
      <path d="M9 21H5a2 2 0 0 1-2-2V5a2 2 0 0 1 2-2h4" />
    </symbol>
    <symbol id="package-x" viewBox="0 0 24 24">
      <path d="M12 22V12" />
      <path d="m16.5 14.5 5 5" />
      <path d="m16.5 19.5 5-5" />
      <path d="M21 10.5V8a2 2 0 0 0-1-1.73l-7-4a2 2 0 0 0-2 0l-7 4A2 2 0 0 0 3 8v8a2 2 0 0 0 1 1.729l7 4a2 2 0 0 0 2 .001l.13-.074" />
      <path d="M3.29 7 12 12l8.71-5" />
      <path d="m7.5 4.27 8.997 5.148" />
    </symbol>
    <symbol id="panel-left-close" viewBox="0 0 24 24">
      <rect width="18" height="18" x="3" y="3" rx="2" />
      <path d="M9 3v18" />
      <path d="m16 15-3-3 3-3" />
    </symbol>
    <symbol id="panel-left-open" viewBox="0 0 24 24">
      <rect width="18" height="18" x="3" y="3" rx="2" />
      <path d="M9 3v18" />
      <path d="m14 9 3 3-3 3" />
    </symbol>
    <symbol id="pause" viewBox="0 0 24 24">
      <rect x="14" y="3" width="5" height="18" rx="1" />
      <rect x="5" y="3" width="5" height="18" rx="1" />
    </symbol>
    <symbol id="pencil" viewBox="0 0 24 24">
      <path d="M21.174 6.812a1 1 0 0 0-3.986-3.987L3.842 16.174a2 2 0 0 0-.5.83l-1.321 4.352a.5.5 0 0 0 .623.622l4.353-1.32a2 2 0 0 0 .83-.497z" />
      <path d="m15 5 4 4" />
    </symbol>
    <symbol id="play" viewBox="0 0 24 24">
      <path d="M5 5a2 2 0 0 1 3.008-1.728l11.997 6.998a2 2 0 0 1 .003 3.458l-12 7A2 2 0 0 1 5 19z" />
    </symbol>
    <symbol id="plus" viewBox="0 0 24 24">
      <path d="M5 12h14" />
      <path d="M12 5v14" />
    </symbol>
    <symbol id="refresh-cw" viewBox="0 0 24 24">
      <path d="M3 12a9 9 0 0 1 9-9 9.75 9.75 0 0 1 6.74 2.74L21 8" />
      <path d="M21 3v5h-5" />
      <path d="M21 12a9 9 0 0 1-9 9 9.75 9.75 0 0 1-6.74-2.74L3 16" />
      <path d="M8 16H3v5" />
    </symbol>
    <symbol id="rocket" viewBox="0 0 24 24">
      <path d="M12 15v5s3.03-.55 4-2c1.08-1.62 0-5 0-5" />
      <path d="M4.5 16.5c-1.5 1.26-2 5-2 5s3.74-.5 5-2c.71-.84.7-2.13-.09-2.91a2.18 2.18 0 0 0-2.91-.09" />
      <path d="M9 12a22 22 0 0 1 2-3.95A12.88 12.88 0 0 1 22 2c0 2.72-.78 7.5-6 11a22.4 22.4 0 0 1-4 2z" />
      <path d="M9 12H4s.55-3.03 2-4c1.62-1.08 5 .05 5 .05" />
    </symbol>
    <symbol id="rotate-ccw" viewBox="0 0 24 24">
      <path d="M3 12a9 9 0 1 0 9-9 9.75 9.75 0 0 0-6.74 2.74L3 8" />
      <path d="M3 3v5h5" />
    </symbol>
    <symbol id="save" viewBox="0 0 24 24">
      <path d="M15.2 3a2 2 0 0 1 1.4.6l3.8 3.8a2 2 0 0 1 .6 1.4V19a2 2 0 0 1-2 2H5a2 2 0 0 1-2-2V5a2 2 0 0 1 2-2z" />
      <path d="M17 21v-7a1 1 0 0 0-1-1H8a1 1 0 0 0-1 1v7" />
      <path d="M7 3v4a1 1 0 0 0 1 1h7" />
    </symbol>
    <symbol id="scroll-text" viewBox="0 0 24 24">
      <path d="M15 12h-5" />
      <path d="M15 8h-5" />
      <path d="M19 17V5a2 2 0 0 0-2-2H4" />
      <path d="M8 21h12a2 2 0 0 0 2-2v-1a1 1 0 0 0-1-1H11a1 1 0 0 0-1 1v1a2 2 0 1 1-4 0V5a2 2 0 1 0-4 0v2a1 1 0 0 0 1 1h3" />
    </symbol>
    <symbol id="search" viewBox="0 0 24 24">
      <path d="m21 21-4.34-4.34" />
      <circle cx="11" cy="11" r="8" />
    </symbol>
    <symbol id="send" viewBox="0 0 24 24">
      <path d="M14.536 21.686a.5.5 0 0 0 .937-.024l6.5-19a.496.496 0 0 0-.635-.635l-19 6.5a.5.5 0 0 0-.024.937l7.93 3.18a2 2 0 0 1 1.112 1.11z" />
      <path d="m21.854 2.147-10.94 10.939" />
    </symbol>
    <symbol id="server" viewBox="0 0 24 24">
      <rect width="20" height="8" x="2" y="2" rx="2" ry="2" />
      <rect width="20" height="8" x="2" y="14" rx="2" ry="2" />
      <line x1="6" x2="6.01" y1="6" y2="6" />
      <line x1="6" x2="6.01" y1="18" y2="18" />
    </symbol>
    <symbol id="settings-2" viewBox="0 0 24 24">
      <path d="M14 17H5" />
      <path d="M19 7h-9" />
      <circle cx="17" cy="17" r="3" />
      <circle cx="7" cy="7" r="3" />
    </symbol>
    <symbol id="settings" viewBox="0 0 24 24">
      <path d="M9.671 4.136a2.34 2.34 0 0 1 4.659 0 2.34 2.34 0 0 0 3.319 1.915 2.34 2.34 0 0 1 2.33 4.033 2.34 2.34 0 0 0 0 3.831 2.34 2.34 0 0 1-2.33 4.033 2.34 2.34 0 0 0-3.319 1.915 2.34 2.34 0 0 1-4.659 0 2.34 2.34 0 0 0-3.32-1.915 2.34 2.34 0 0 1-2.33-4.033 2.34 2.34 0 0 0 0-3.831A2.34 2.34 0 0 1 6.35 6.051a2.34 2.34 0 0 0 3.319-1.915" />
      <circle cx="12" cy="12" r="3" />
    </symbol>
    <symbol id="shield-check" viewBox="0 0 24 24">
      <path d="M20 13c0 5-3.5 7.5-7.66 8.95a1 1 0 0 1-.67-.01C7.5 20.5 4 18 4 13V6a1 1 0 0 1 1-1c2 0 4.5-1.2 6.24-2.72a1.17 1.17 0 0 1 1.52 0C14.51 3.81 17 5 19 5a1 1 0 0 1 1 1z" />
      <path d="m9 12 2 2 4-4" />
    </symbol>
    <symbol id="shield-plus" viewBox="0 0 24 24">
      <path d="M20 13c0 5-3.5 7.5-7.66 8.95a1 1 0 0 1-.67-.01C7.5 20.5 4 18 4 13V6a1 1 0 0 1 1-1c2 0 4.5-1.2 6.24-2.72a1.17 1.17 0 0 1 1.52 0C14.51 3.81 17 5 19 5a1 1 0 0 1 1 1z" />
      <path d="M9 12h6" />
      <path d="M12 9v6" />
    </symbol>
    <symbol id="terminal" viewBox="0 0 24 24">
      <path d="M12 19h8" />
      <path d="m4 17 6-6-6-6" />
    </symbol>
    <symbol id="trash-2" viewBox="0 0 24 24">
      <path d="M10 11v6" />
      <path d="M14 11v6" />
      <path d="M19 6v14a2 2 0 0 1-2 2H7a2 2 0 0 1-2-2V6" />
      <path d="M3 6h18" />
      <path d="M8 6V4a2 2 0 0 1 2-2h4a2 2 0 0 1 2 2v2" />
    </symbol>
    <symbol id="upload" viewBox="0 0 24 24">
      <path d="M12 3v12" />
      <path d="m17 8-5-5-5 5" />
      <path d="M21 15v4a2 2 0 0 1-2 2H5a2 2 0 0 1-2-2v-4" />
    </symbol>
    <symbol id="x" viewBox="0 0 24 24">
      <path d="M18 6 6 18" />
      <path d="m6 6 12 12" />
    </symbol>
  </defs>
</svg>
